<?xml version="1.0" encoding="iso-8859-1"?>
<!-- Uploaded to: SVG Repo, www.svgrepo.com, Generator: SVG Repo Mixer Tools -->
<svg height="800px" width="800px" version="1.1" id="Layer_1" xmlns="http://www.w3.org/2000/svg" xmlns:xlink="http://www.w3.org/1999/xlink" 
	 viewBox="0 0 512 512" xml:space="preserve">
<path style="fill:#FFD155;" d="M472.178,477.38H39.822C17.864,477.38,0,459.515,0,437.557V136.772
	c0-9.425,7.641-17.067,17.067-17.067h477.867c9.425,0,17.067,7.641,17.067,17.067v300.785
	C512,459.515,494.136,477.38,472.178,477.38z"/>
<path style="fill:#8DC3E9;" d="M512,153.839H0V74.443C0,52.449,17.829,34.62,39.822,34.62h432.356
	C494.171,34.62,512,52.449,512,74.443V153.839z"/>
<g>
	<circle style="fill:#FFE49C;" cx="71.805" cy="94.231" r="12.836"/>
	<circle style="fill:#FFE49C;" cx="112.959" cy="94.231" r="12.836"/>
	<circle style="fill:#FFE49C;" cx="154.112" cy="94.231" r="12.836"/>
</g>
<path style="fill:#FFBE00;" d="M494.933,119.706H256V477.38h216.178c21.958,0,39.822-17.864,39.822-39.822V136.772
	C512,127.347,504.359,119.706,494.933,119.706z"/>
<path style="fill:#FFD155;" d="M433.876,346.188l-24.583-24.582c7.501-17.177,4.248-37.959-9.786-51.992
	c-18.29-18.291-48.052-18.291-66.343,0c-18.291,18.291-18.291,48.052,0,66.343c13.987,13.987,34.724,17.327,51.992,9.786
	l24.583,24.582c6.664,6.665,17.471,6.666,24.136,0C440.541,363.659,440.541,352.853,433.876,346.188z M357.301,311.821
	c-4.982-4.982-4.982-13.089,0-18.071s13.089-4.982,18.071,0c4.981,4.981,4.982,13.086,0.002,18.068
	c-0.001,0.001-0.002,0.001-0.003,0.002c-0.001,0.001-0.001,0.002-0.002,0.002C370.387,316.803,362.282,316.802,357.301,311.821z"/>
<path style="fill:#FFE49C;" d="M300.161,341.19H90.192c-9.425,0-17.067,7.641-17.067,17.067s7.641,17.067,17.067,17.067h209.969
	c9.425,0,17.067-7.641,17.067-17.067S309.586,341.19,300.161,341.19z"/>
<path style="fill:#48AEE2;" d="M512,74.443c0-21.993-17.829-39.822-39.822-39.822H256v119.219h256V74.443z"/>
<path style="fill:#FFD155;" d="M300.161,341.19h-44.164v34.133h44.164c9.425,0,17.067-7.641,17.067-17.067
	S309.586,341.19,300.161,341.19z"/>
</svg>